<svg xmlns="http://www.w3.org/2000/svg" viewBox="0 0 16 32" shape-rendering="crispEdges"><rect x="7" y="0" width="1" height="1" fill="#f2c230"/><rect x="8" y="0" width="1" height="1" fill="#ffe27a"/><rect x="6" y="1" width="1" height="1" fill="#f2c230"/><rect x="7" y="1" width="1" height="1" fill="#ffe27a"/><rect x="8" y="1" width="1" height="1" fill="#f2c230"/><rect x="9" y="1" width="1" height="1" fill="#ffe27a"/><rect x="7" y="2" width="1" height="1" fill="#8b5a2b"/><rect x="8" y="2" width="1" height="1" fill="#8b5a2b"/><rect x="7" y="3" width="1" height="1" fill="#6e4520"/><rect x="8" y="3" width="1" height="1" fill="#6e4520"/><rect x="7" y="4" width="1" height="1" fill="#8b5a2b"/><rect x="8" y="4" width="1" height="1" fill="#8b5a2b"/><rect x="7" y="5" width="1" height="1" fill="#6e4520"/><rect x="8" y="5" width="1" height="1" fill="#6e4520"/><rect x="7" y="6" width="1" height="1" fill="#8b5a2b"/><rect x="8" y="6" width="1" height="1" fill="#8b5a2b"/><rect x="3" y="7" width="1" height="1" fill="#e0aa1c"/><rect x="4" y="7" width="1" height="1" fill="#e0aa1c"/><rect x="5" y="7" width="1" height="1" fill="#ffe27a"/><rect x="6" y="7" width="1" height="1" fill="#ffe27a"/><rect x="7" y="7" width="1" height="1" fill="#e0405a"/><rect x="8" y="7" width="1" height="1" fill="#ff6b86"/><rect x="9" y="7" width="1" height="1" fill="#f2c230"/><rect x="10" y="7" width="1" height="1" fill="#e0aa1c"/><rect x="11" y="7" width="1" height="1" fill="#f2c230"/><rect x="12" y="7" width="1" height="1" fill="#e0aa1c"/><rect x="2" y="8" width="1" height="1" fill="#e0aa1c"/><rect x="3" y="8" width="1" height="1" fill="#e0aa1c"/><rect x="4" y="8" width="1" height="1" fill="#b8860b"/><rect x="5" y="8" width="1" height="1" fill="#e0aa1c"/><rect x="6" y="8" width="1" height="1" fill="#b8860b"/><rect x="7" y="8" width="1" height="1" fill="#b8860b"/><rect x="8" y="8" width="1" height="1" fill="#d9a21a"/><rect x="9" y="8" width="1" height="1" fill="#b8860b"/><rect x="10" y="8" width="1" height="1" fill="#d9a21a"/><rect x="11" y="8" width="1" height="1" fill="#b8860b"/><rect x="12" y="8" width="1" height="1" fill="#b8860b"/><rect x="13" y="8" width="1" height="1" fill="#d9a21a"/><rect x="2" y="9" width="1" height="1" fill="#b8860b"/><rect x="13" y="9" width="1" height="1" fill="#b8860b"/><rect x="6" y="9" width="1" height="1" fill="#1f9fb0"/><rect x="7" y="9" width="1" height="1" fill="#5decf5"/><rect x="8" y="9" width="1" height="1" fill="#5decf5"/><rect x="9" y="9" width="1" height="1" fill="#2cc4d3"/><rect x="6" y="10" width="1" height="1" fill="#1f9fb0"/><rect x="7" y="10" width="1" height="1" fill="#e8ffff"/><rect x="8" y="10" width="1" height="1" fill="#5decf5"/><rect x="9" y="10" width="1" height="1" fill="#2cc4d3"/><rect x="6" y="11" width="1" height="1" fill="#1f9fb0"/><rect x="7" y="11" width="1" height="1" fill="#5decf5"/><rect x="8" y="11" width="1" height="1" fill="#5decf5"/><rect x="9" y="11" width="1" height="1" fill="#2cc4d3"/><rect x="6" y="12" width="1" height="1" fill="#1f9fb0"/><rect x="7" y="12" width="1" height="1" fill="#5decf5"/><rect x="8" y="12" width="1" height="1" fill="#5decf5"/><rect x="9" y="12" width="1" height="1" fill="#2cc4d3"/><rect x="6" y="13" width="1" height="1" fill="#1f9fb0"/><rect x="7" y="13" width="1" height="1" fill="#5decf5"/><rect x="8" y="13" width="1" height="1" fill="#5decf5"/><rect x="9" y="13" width="1" height="1" fill="#2cc4d3"/><rect x="6" y="14" width="1" height="1" fill="#1f9fb0"/><rect x="7" y="14" width="1" height="1" fill="#5decf5"/><rect x="8" y="14" width="1" height="1" fill="#5decf5"/><rect x="9" y="14" width="1" height="1" fill="#2cc4d3"/><rect x="6" y="15" width="1" height="1" fill="#1f9fb0"/><rect x="7" y="15" width="1" height="1" fill="#e8ffff"/><rect x="8" y="15" width="1" height="1" fill="#5decf5"/><rect x="9" y="15" width="1" height="1" fill="#2cc4d3"/><rect x="6" y="16" width="1" height="1" fill="#1f9fb0"/><rect x="7" y="16" width="1" height="1" fill="#5decf5"/><rect x="8" y="16" width="1" height="1" fill="#5decf5"/><rect x="9" y="16" width="1" height="1" fill="#2cc4d3"/><rect x="6" y="17" width="1" height="1" fill="#1f9fb0"/><rect x="7" y="17" width="1" height="1" fill="#5decf5"/><rect x="8" y="17" width="1" height="1" fill="#5decf5"/><rect x="9" y="17" width="1" height="1" fill="#2cc4d3"/><rect x="6" y="18" width="1" height="1" fill="#1f9fb0"/><rect x="7" y="18" width="1" height="1" fill="#5decf5"/><rect x="8" y="18" width="1" height="1" fill="#5decf5"/><rect x="9" y="18" width="1" height="1" fill="#2cc4d3"/><rect x="6" y="19" width="1" height="1" fill="#1f9fb0"/><rect x="7" y="19" width="1" height="1" fill="#5decf5"/><rect x="8" y="19" width="1" height="1" fill="#5decf5"/><rect x="9" y="19" width="1" height="1" fill="#2cc4d3"/><rect x="6" y="20" width="1" height="1" fill="#1f9fb0"/><rect x="7" y="20" width="1" height="1" fill="#e8ffff"/><rect x="8" y="20" width="1" height="1" fill="#5decf5"/><rect x="9" y="20" width="1" height="1" fill="#2cc4d3"/><rect x="6" y="21" width="1" height="1" fill="#1f9fb0"/><rect x="7" y="21" width="1" height="1" fill="#5decf5"/><rect x="8" y="21" width="1" height="1" fill="#5decf5"/><rect x="9" y="21" width="1" height="1" fill="#2cc4d3"/><rect x="6" y="22" width="1" height="1" fill="#1f9fb0"/><rect x="7" y="22" width="1" height="1" fill="#5decf5"/><rect x="8" y="22" width="1" height="1" fill="#5decf5"/><rect x="9" y="22" width="1" height="1" fill="#2cc4d3"/><rect x="6" y="23" width="1" height="1" fill="#1f9fb0"/><rect x="7" y="23" width="1" height="1" fill="#5decf5"/><rect x="8" y="23" width="1" height="1" fill="#5decf5"/><rect x="9" y="23" width="1" height="1" fill="#2cc4d3"/><rect x="6" y="24" width="1" height="1" fill="#1f9fb0"/><rect x="7" y="24" width="1" height="1" fill="#5decf5"/><rect x="8" y="24" width="1" height="1" fill="#5decf5"/><rect x="9" y="24" width="1" height="1" fill="#2cc4d3"/><rect x="6" y="25" width="1" height="1" fill="#5fb23a"/><rect x="7" y="25" width="1" height="1" fill="#4f9a2e"/><rect x="8" y="25" width="1" height="1" fill="#5decf5"/><rect x="9" y="25" width="1" height="1" fill="#2cc4d3"/><rect x="6" y="26" width="1" height="1" fill="#4f9a2e"/><rect x="7" y="26" width="1" height="1" fill="#4f9a2e"/><rect x="8" y="26" width="1" height="1" fill="#5decf5"/><rect x="9" y="26" width="1" height="1" fill="#2cc4d3"/><rect x="7" y="27" width="1" height="1" fill="#5fb23a"/><rect x="8" y="27" width="1" height="1" fill="#4f9a2e"/><rect x="7" y="28" width="1" height="1" fill="#6cc044"/><rect x="8" y="28" width="1" height="1" fill="#6cc044"/><rect x="7" y="29" width="1" height="1" fill="#6cc044"/><rect x="6" y="0" width="1" height="1" fill="#1a0f0a"/><rect x="9" y="0" width="1" height="1" fill="#1a0f0a"/><rect x="5" y="1" width="1" height="1" fill="#1a0f0a"/><rect x="6" y="2" width="1" height="1" fill="#1a0f0a"/><rect x="10" y="1" width="1" height="1" fill="#1a0f0a"/><rect x="9" y="2" width="1" height="1" fill="#1a0f0a"/><rect x="6" y="3" width="1" height="1" fill="#1a0f0a"/><rect x="9" y="3" width="1" height="1" fill="#1a0f0a"/><rect x="6" y="4" width="1" height="1" fill="#1a0f0a"/><rect x="9" y="4" width="1" height="1" fill="#1a0f0a"/><rect x="6" y="5" width="1" height="1" fill="#1a0f0a"/><rect x="9" y="5" width="1" height="1" fill="#1a0f0a"/><rect x="6" y="6" width="1" height="1" fill="#1a0f0a"/><rect x="9" y="6" width="1" height="1" fill="#1a0f0a"/><rect x="2" y="7" width="1" height="1" fill="#1a0f0a"/><rect x="3" y="6" width="1" height="1" fill="#1a0f0a"/><rect x="4" y="6" width="1" height="1" fill="#1a0f0a"/><rect x="5" y="6" width="1" height="1" fill="#1a0f0a"/><rect x="10" y="6" width="1" height="1" fill="#1a0f0a"/><rect x="11" y="6" width="1" height="1" fill="#1a0f0a"/><rect x="13" y="7" width="1" height="1" fill="#1a0f0a"/><rect x="12" y="6" width="1" height="1" fill="#1a0f0a"/><rect x="1" y="8" width="1" height="1" fill="#1a0f0a"/><rect x="3" y="9" width="1" height="1" fill="#1a0f0a"/><rect x="4" y="9" width="1" height="1" fill="#1a0f0a"/><rect x="5" y="9" width="1" height="1" fill="#1a0f0a"/><rect x="10" y="9" width="1" height="1" fill="#1a0f0a"/><rect x="11" y="9" width="1" height="1" fill="#1a0f0a"/><rect x="12" y="9" width="1" height="1" fill="#1a0f0a"/><rect x="14" y="8" width="1" height="1" fill="#1a0f0a"/><rect x="1" y="9" width="1" height="1" fill="#1a0f0a"/><rect x="2" y="10" width="1" height="1" fill="#1a0f0a"/><rect x="14" y="9" width="1" height="1" fill="#1a0f0a"/><rect x="13" y="10" width="1" height="1" fill="#1a0f0a"/><rect x="5" y="10" width="1" height="1" fill="#1a0f0a"/><rect x="10" y="10" width="1" height="1" fill="#1a0f0a"/><rect x="5" y="11" width="1" height="1" fill="#1a0f0a"/><rect x="10" y="11" width="1" height="1" fill="#1a0f0a"/><rect x="5" y="12" width="1" height="1" fill="#1a0f0a"/><rect x="10" y="12" width="1" height="1" fill="#1a0f0a"/><rect x="5" y="13" width="1" height="1" fill="#1a0f0a"/><rect x="10" y="13" width="1" height="1" fill="#1a0f0a"/><rect x="5" y="14" width="1" height="1" fill="#1a0f0a"/><rect x="10" y="14" width="1" height="1" fill="#1a0f0a"/><rect x="5" y="15" width="1" height="1" fill="#1a0f0a"/><rect x="10" y="15" width="1" height="1" fill="#1a0f0a"/><rect x="5" y="16" width="1" height="1" fill="#1a0f0a"/><rect x="10" y="16" width="1" height="1" fill="#1a0f0a"/><rect x="5" y="17" width="1" height="1" fill="#1a0f0a"/><rect x="10" y="17" width="1" height="1" fill="#1a0f0a"/><rect x="5" y="18" width="1" height="1" fill="#1a0f0a"/><rect x="10" y="18" width="1" height="1" fill="#1a0f0a"/><rect x="5" y="19" width="1" height="1" fill="#1a0f0a"/><rect x="10" y="19" width="1" height="1" fill="#1a0f0a"/><rect x="5" y="20" width="1" height="1" fill="#1a0f0a"/><rect x="10" y="20" width="1" height="1" fill="#1a0f0a"/><rect x="5" y="21" width="1" height="1" fill="#1a0f0a"/><rect x="10" y="21" width="1" height="1" fill="#1a0f0a"/><rect x="5" y="22" width="1" height="1" fill="#1a0f0a"/><rect x="10" y="22" width="1" height="1" fill="#1a0f0a"/><rect x="5" y="23" width="1" height="1" fill="#1a0f0a"/><rect x="10" y="23" width="1" height="1" fill="#1a0f0a"/><rect x="5" y="24" width="1" height="1" fill="#1a0f0a"/><rect x="10" y="24" width="1" height="1" fill="#1a0f0a"/><rect x="5" y="25" width="1" height="1" fill="#1a0f0a"/><rect x="10" y="25" width="1" height="1" fill="#4f9a2e"/><rect x="5" y="26" width="1" height="1" fill="#4f9a2e"/><rect x="6" y="27" width="1" height="1" fill="#3f8a25"/><rect x="10" y="26" width="1" height="1" fill="#5fb23a"/><rect x="9" y="27" width="1" height="1" fill="#5fb23a"/><rect x="6" y="28" width="1" height="1" fill="#3f8a25"/><rect x="9" y="28" width="1" height="1" fill="#4f9a2e"/><rect x="8" y="29" width="1" height="1" fill="#5fb23a"/><rect x="6" y="29" width="1" height="1" fill="#3f8a25"/><rect x="7" y="30" width="1" height="1" fill="#6cc044"/><rect x="2" y="28" width="1" height="1" fill="#6cc044"/><rect x="2" y="29" width="1" height="1" fill="#5fb23a"/><rect x="2" y="30" width="1" height="1" fill="#6cc044"/><rect x="2" y="31" width="1" height="1" fill="#6f4b30"/><rect x="3" y="29" width="1" height="1" fill="#5fb23a"/><rect x="3" y="30" width="1" height="1" fill="#4f9a2e"/><rect x="3" y="31" width="1" height="1" fill="#7a5539"/><rect x="4" y="26" width="1" height="1" fill="#4f9a2e"/><rect x="4" y="27" width="1" height="1" fill="#4f9a2e"/><rect x="4" y="28" width="1" height="1" fill="#4f9a2e"/><rect x="4" y="29" width="1" height="1" fill="#5fb23a"/><rect x="4" y="30" width="1" height="1" fill="#4f9a2e"/><rect x="4" y="31" width="1" height="1" fill="#866043"/><rect x="5" y="27" width="1" height="1" fill="#3f8a25"/><rect x="5" y="28" width="1" height="1" fill="#5fb23a"/><rect x="5" y="29" width="1" height="1" fill="#6cc044"/><rect x="5" y="30" width="1" height="1" fill="#5fb23a"/><rect x="5" y="31" width="1" height="1" fill="#866043"/><rect x="6" y="30" width="1" height="1" fill="#3f8a25"/><rect x="6" y="31" width="1" height="1" fill="#7a5539"/><rect x="7" y="31" width="1" height="1" fill="#6f4b30"/><rect x="8" y="30" width="1" height="1" fill="#6cc044"/><rect x="8" y="31" width="1" height="1" fill="#7a5539"/><rect x="9" y="29" width="1" height="1" fill="#3f8a25"/><rect x="9" y="30" width="1" height="1" fill="#3f8a25"/><rect x="9" y="31" width="1" height="1" fill="#866043"/><rect x="10" y="27" width="1" height="1" fill="#3f8a25"/><rect x="10" y="28" width="1" height="1" fill="#4f9a2e"/><rect x="10" y="29" width="1" height="1" fill="#3f8a25"/><rect x="10" y="30" width="1" height="1" fill="#5fb23a"/><rect x="10" y="31" width="1" height="1" fill="#866043"/><rect x="11" y="25" width="1" height="1" fill="#5fb23a"/><rect x="11" y="26" width="1" height="1" fill="#5fb23a"/><rect x="11" y="27" width="1" height="1" fill="#4f9a2e"/><rect x="11" y="28" width="1" height="1" fill="#6cc044"/><rect x="11" y="29" width="1" height="1" fill="#4f9a2e"/><rect x="11" y="30" width="1" height="1" fill="#3f8a25"/><rect x="11" y="31" width="1" height="1" fill="#6f4b30"/><rect x="12" y="28" width="1" height="1" fill="#6cc044"/><rect x="12" y="29" width="1" height="1" fill="#4f9a2e"/><rect x="12" y="30" width="1" height="1" fill="#3f8a25"/><rect x="12" y="31" width="1" height="1" fill="#866043"/><rect x="13" y="29" width="1" height="1" fill="#6cc044"/><rect x="13" y="30" width="1" height="1" fill="#6cc044"/><rect x="13" y="31" width="1" height="1" fill="#6f4b30"/><rect x="1" y="31" width="1" height="1" fill="#7a5539"/><rect x="14" y="31" width="1" height="1" fill="#866043"/><g><rect x="7" y="9" width="2" height="2" fill="#ffffff" opacity="0">
<animate attributeName="y" values="9;24" dur="2.6s" repeatCount="indefinite"/>
<animate attributeName="opacity" values="0;0;1;1;0;0" keyTimes="0;0.55;0.62;0.8;0.9;1" dur="2.6s" repeatCount="indefinite"/></rect></g></svg>